<svg id="visual" viewBox="0 0 900 600" width="900" height="600" xmlns="http://www.w3.org/2000/svg" xmlns:xlink="http://www.w3.org/1999/xlink" version="1.1"><rect x="0" y="0" width="900" height="600" fill="#FFF"></rect><path d="M0 48L16.7 56C33.3 64 66.7 80 100 84.8C133.3 89.7 166.7 83.3 200 72.3C233.3 61.3 266.7 45.7 300 36.5C333.3 27.3 366.7 24.7 400 32C433.3 39.3 466.7 56.7 500 68C533.3 79.3 566.7 84.7 600 80.7C633.3 76.7 666.7 63.3 700 54C733.3 44.7 766.7 39.3 800 39C833.3 38.7 866.7 43.3 883.3 45.7L900 48L900 0L883.3 0C866.7 0 833.3 0 800 0C766.7 0 733.3 0 700 0C666.7 0 633.3 0 600 0C566.7 0 533.3 0 500 0C466.7 0 433.3 0 400 0C366.7 0 333.3 0 300 0C266.7 0 233.3 0 200 0C166.7 0 133.3 0 100 0C66.7 0 33.3 0 16.7 0L0 0Z" fill="#E3FDE3" stroke-linecap="round" stroke-linejoin="miter"></path></svg>